<svg xmlns="http://www.w3.org/2000/svg" xmlns:xlink="http://www.w3.org/1999/xlink" width="220.002" height="254.279" viewBox="0 0 220.002 254.279">
  <defs>
    <linearGradient id="linear-gradient" y1="2.877" x2="11.019" y2="2.877" gradientUnits="objectBoundingBox">
      <stop offset="0.053" stop-color="#0070b8"/>
      <stop offset="0.864" stop-color="#008b7f"/>
    </linearGradient>
    <linearGradient id="linear-gradient-2" x1="-0.467" y1="2.263" x2="15.109" y2="2.263" xlink:href="#linear-gradient"/>
    <linearGradient id="linear-gradient-3" x1="-1.097" y1="1.218" x2="12.736" y2="1.218" xlink:href="#linear-gradient"/>
    <linearGradient id="linear-gradient-4" x1="-1.691" y1="0.638" x2="14.499" y2="0.638" xlink:href="#linear-gradient"/>
    <linearGradient id="linear-gradient-5" x1="-2.696" y1="-0.068" x2="13.139" y2="-0.068" xlink:href="#linear-gradient"/>
    <linearGradient id="linear-gradient-6" x1="-4.271" y1="-0.579" x2="14.715" y2="-0.579" xlink:href="#linear-gradient"/>
    <linearGradient id="linear-gradient-7" x1="-4.975" y1="-0.768" x2="13.106" y2="-0.768" xlink:href="#linear-gradient"/>
    <linearGradient id="linear-gradient-8" x1="-7.291" y1="-1.067" x2="14.61" y2="-1.067" xlink:href="#linear-gradient"/>
    <linearGradient id="linear-gradient-9" x1="-9.099" y1="-1.348" x2="14.825" y2="-1.348" xlink:href="#linear-gradient"/>
    <linearGradient id="linear-gradient-10" x1="-20.156" y1="-0.86" x2="26.524" y2="-0.86" xlink:href="#linear-gradient"/>
    <linearGradient id="linear-gradient-11" x1="-28.342" y1="-0.892" x2="32.685" y2="-0.892" xlink:href="#linear-gradient"/>
    <linearGradient id="linear-gradient-12" x1="-13.746" y1="-1.487" x2="14.051" y2="-1.487" xlink:href="#linear-gradient"/>
    <linearGradient id="linear-gradient-13" x1="-12.339" y1="-0.905" x2="8.119" y2="-0.905" xlink:href="#linear-gradient"/>
    <linearGradient id="linear-gradient-14" x1="-16.024" y1="-0.606" x2="8.761" y2="-0.606" xlink:href="#linear-gradient"/>
    <linearGradient id="linear-gradient-15" x1="-11.367" y1="-0.732" x2="5.336" y2="-0.732" xlink:href="#linear-gradient"/>
    <linearGradient id="linear-gradient-16" x1="-17.502" y1="-0.46" x2="6.505" y2="-0.46" xlink:href="#linear-gradient"/>
    <linearGradient id="linear-gradient-17" x1="-12.971" y1="-0.005" x2="4.32" y2="-0.005" xlink:href="#linear-gradient"/>
    <linearGradient id="linear-gradient-18" x1="-12.745" y1="0.194" x2="3.72" y2="0.194" xlink:href="#linear-gradient"/>
    <linearGradient id="linear-gradient-19" x1="-12.192" y1="0.435" x2="3.141" y2="0.435" xlink:href="#linear-gradient"/>
    <linearGradient id="linear-gradient-20" x1="-11.531" y1="0.697" x2="2.334" y2="0.697" xlink:href="#linear-gradient"/>
    <linearGradient id="linear-gradient-21" x1="-11.082" y1="1.158" x2="1.609" y2="1.158" xlink:href="#linear-gradient"/>
    <linearGradient id="linear-gradient-22" x1="-12.052" y1="2.154" x2="1.313" y2="2.154" xlink:href="#linear-gradient"/>
    <linearGradient id="linear-gradient-23" x1="-14.232" y1="3.349" x2="1" y2="3.349" xlink:href="#linear-gradient"/>
    <linearGradient id="linear-gradient-24" x1="0.382" y1="-0.639" x2="5.278" y2="-0.639" gradientUnits="objectBoundingBox">
      <stop offset="0" stop-color="#008b7f"/>
      <stop offset="0.26" stop-color="#008688"/>
      <stop offset="0.69" stop-color="#007aa1"/>
      <stop offset="1" stop-color="#0070b8"/>
    </linearGradient>
    <linearGradient id="linear-gradient-25" x1="-0.078" y1="-0.017" x2="5.087" y2="-0.017" xlink:href="#linear-gradient-24"/>
    <linearGradient id="linear-gradient-26" x1="-0.53" y1="0.475" x2="4.144" y2="0.475" xlink:href="#linear-gradient-24"/>
    <linearGradient id="linear-gradient-27" x1="-1.637" y1="0.829" x2="4.617" y2="0.829" xlink:href="#linear-gradient-24"/>
    <linearGradient id="linear-gradient-28" x1="-2.782" y1="1.071" x2="4.284" y2="1.071" xlink:href="#linear-gradient-24"/>
    <linearGradient id="linear-gradient-29" x1="-4.107" y1="1.224" x2="3.675" y2="1.224" xlink:href="#linear-gradient-24"/>
    <linearGradient id="linear-gradient-30" x1="-6.279" y1="1.309" x2="2.987" y2="1.309" xlink:href="#linear-gradient-24"/>
    <linearGradient id="linear-gradient-31" x1="-7.962" y1="1.305" x2="1.872" y2="1.305" xlink:href="#linear-gradient-24"/>
    <linearGradient id="linear-gradient-32" x1="-11.655" y1="1.182" x2="0.033" y2="1.182" xlink:href="#linear-gradient-24"/>
    <linearGradient id="linear-gradient-33" x1="-5.94" y1="0.971" x2="-0.323" y2="0.971" xlink:href="#linear-gradient-24"/>
    <linearGradient id="linear-gradient-34" x1="-6.658" y1="0.699" x2="-0.982" y2="0.699" xlink:href="#linear-gradient-24"/>
    <linearGradient id="linear-gradient-35" x1="-8.143" y1="0.41" x2="-1.784" y2="0.41" xlink:href="#linear-gradient-24"/>
    <linearGradient id="linear-gradient-36" x1="-7.111" y1="-0.018" x2="-1.924" y2="-0.018" xlink:href="#linear-gradient-24"/>
    <linearGradient id="linear-gradient-37" x1="-7.091" y1="-0.625" x2="-2.213" y2="-0.625" xlink:href="#linear-gradient-24"/>
  </defs>
  <g id="Groupe_48" data-name="Groupe 48" transform="translate(-854.059 -13.666)">
    <g id="Groupe_47" data-name="Groupe 47" transform="translate(819.415 -16.217)">
      <g id="Calque_1" data-name="Calque 1" transform="translate(65.337 84.855)">
        <g id="Groupe_42" data-name="Groupe 42">
          <g id="Groupe_41" data-name="Groupe 41">
            <g id="Groupe_38" data-name="Groupe 38" transform="translate(17.171)">
              <path id="Tracé_83" data-name="Tracé 83" d="M149.011,203.2a52.424,52.424,0,1,1,52.427-52.424A52.484,52.484,0,0,1,149.011,203.2Zm0-101.313A48.888,48.888,0,1,0,197.9,150.78,48.942,48.942,0,0,0,149.011,101.891Z" transform="translate(-77.027 -78.797)" fill="#6dac4c"/>
              <path id="Tracé_84" data-name="Tracé 84" d="M150.6,224.356a71.984,71.984,0,1,1,71.989-71.984A72.065,72.065,0,0,1,150.6,224.356Zm0-140.433a68.449,68.449,0,1,0,68.452,68.449A68.524,68.524,0,0,0,150.6,83.922Z" transform="translate(-78.617 -80.387)" fill="#1a9c8c"/>
            </g>
            <g id="Groupe_39" data-name="Groupe 39" transform="translate(43.79 26.619)">
              <path id="Tracé_85" data-name="Tracé 85" d="M158.075,200.8a40.956,40.956,0,1,1,40.96-40.957A41,41,0,0,1,158.075,200.8Zm0-79.192a38.236,38.236,0,1,0,38.241,38.235A38.279,38.279,0,0,0,158.075,121.61Z" transform="translate(-101.83 -103.599)" fill="#fcdf00"/>
              <path id="Tracé_86" data-name="Tracé 86" d="M159.317,217.334a56.246,56.246,0,1,1,56.252-56.246A56.309,56.309,0,0,1,159.317,217.334Zm0-109.772a53.526,53.526,0,1,0,53.531,53.527A53.587,53.587,0,0,0,159.317,107.562Z" transform="translate(-103.073 -104.842)" fill="#b39dca"/>
            </g>
            <g id="Groupe_40" data-name="Groupe 40" transform="translate(0 4.591)">
              <path id="Tracé_87" data-name="Tracé 87" d="M131.408,204.242a51.073,51.073,0,1,1,51.077-51.072A51.131,51.131,0,0,1,131.408,204.242Zm0-98.609a47.537,47.537,0,1,0,47.538,47.537A47.589,47.589,0,0,0,131.408,105.633Z" transform="translate(-61.294 -83.057)" fill="#f88f00"/>
              <path id="Tracé_88" data-name="Tracé 88" d="M132.956,224.83a70.113,70.113,0,1,1,70.119-70.112A70.192,70.192,0,0,1,132.956,224.83Zm0-136.69a66.577,66.577,0,1,0,66.581,66.578A66.653,66.653,0,0,0,132.956,88.14Z" transform="translate(-62.842 -84.605)" fill="#ac0011"/>
            </g>
          </g>
        </g>
      </g>
      <g id="Calque_2" data-name="Calque 2" transform="translate(34.644 29.883)">
        <g id="Groupe_44" data-name="Groupe 44" transform="translate(0 177.35)">
          <g id="Groupe_43" data-name="Groupe 43">
            <path id="Tracé_89" data-name="Tracé 89" d="M35.036,201.971a2.438,2.438,0,0,1-.248-2.123,4.458,4.458,0,0,1,1.959-1.933q.922-.534,2.151-1.218t2.489-1.362q1.262-.678,2.271-1.2a4.331,4.331,0,0,1,2.7-.59,2.5,2.5,0,0,1,1.654,1.365,2.262,2.262,0,0,1,.346,1.492,4,4,0,0,1-.611,1.391l.188.345,5.441-2.979,1.233,2.255-16.8,9.2-1.233-2.254,1.239-.678-.193-.356a4.03,4.03,0,0,1-1.5-.248A2.29,2.29,0,0,1,35.036,201.971Zm2.17-.05a2.046,2.046,0,0,0,.8.8,1.773,1.773,0,0,0,1.171.208l7.394-4.048a1.767,1.767,0,0,0,.457-1.1,2.032,2.032,0,0,0-.245-1.107,1.08,1.08,0,0,0-.686-.607,1.6,1.6,0,0,0-1.012.222q-1.2.591-2.5,1.288t-2.537,1.388q-1.238.694-2.249,1.314a1.6,1.6,0,0,0-.733.733A1.076,1.076,0,0,0,37.206,201.921Z" transform="translate(-34.644 -192.759)" fill="url(#linear-gradient)"/>
            <path id="Tracé_90" data-name="Tracé 90" d="M41.7,213.019a4.3,4.3,0,0,1-.971-2.894,3.848,3.848,0,0,1,1.708-2.392c.367-.27.819-.594,1.359-.971s1.106-.772,1.7-1.18,1.172-.8,1.731-1.169,1.039-.686,1.443-.945a4,4,0,0,1,2.883-.725,4.194,4.194,0,0,1,2.327,1.919,4.09,4.09,0,0,1,.923,2.8,3.82,3.82,0,0,1-1.675,2.335q-.26.191-.825.586t-1.3.884q-.73.493-1.471.956l-2.928-4.28q-.72.493-1.448,1.011t-1.49,1.055a1.483,1.483,0,0,0-.678.874,1.444,1.444,0,0,0,.327,1.009,1.272,1.272,0,0,0,.784.616,1.637,1.637,0,0,0,1.05-.33q.643-.4,1.761-1.2l1.415,2.071c-.175.139-.413.316-.715.525s-.571.394-.813.55a3.988,3.988,0,0,1-2.822.763A4.006,4.006,0,0,1,41.7,213.019Zm6.447-6.122,1.523,2.229c.492-.327.956-.64,1.387-.94s.724-.513.873-.632a1.448,1.448,0,0,0,.618-.827,1.32,1.32,0,0,0-.295-.951,1.441,1.441,0,0,0-.815-.674,1.393,1.393,0,0,0-.991.282l-1.185.78Z" transform="translate(-34.108 -191.946)" fill="url(#linear-gradient-2)"/>
            <path id="Tracé_91" data-name="Tracé 91" d="M50.673,224.5l14.175-12.887,1.728,1.9L52.4,226.4Z" transform="translate(-33.226 -191.156)" fill="url(#linear-gradient-3)"/>
            <path id="Tracé_92" data-name="Tracé 92" d="M56.728,230.8a2.576,2.576,0,0,1-.97-1.91,3.989,3.989,0,0,1,1.047-2.245c.115-.134.241-.276.378-.427s.269-.287.394-.409a4.208,4.208,0,0,1,2.09-1.108,5.739,5.739,0,0,1,2.763.4q.6.2,1.164.429c.377.155.758.323,1.14.508l1.684-1.785a1.628,1.628,0,0,0,.507-.922,1.215,1.215,0,0,0-.5-.928,1.237,1.237,0,0,0-.859-.423,1.518,1.518,0,0,0-.9.506c-.17.16-.415.407-.736.748s-.57.616-.75.829l-1.818-1.713c.12-.15.31-.37.569-.656s.5-.532.711-.737a3.878,3.878,0,0,1,2.506-1.322,4.05,4.05,0,0,1,2.687,1.38,3.8,3.8,0,0,1,1.51,2.69,4.527,4.527,0,0,1-1.471,2.73l-7.318,7.746-1.87-1.763.977-1.035-.26-.247a3.036,3.036,0,0,1-1.426.3A2.079,2.079,0,0,1,56.728,230.8Zm2.033-.684a1.621,1.621,0,0,0,1.922.2l2.808-2.979a8.806,8.806,0,0,0-.82-.345,5.8,5.8,0,0,0-.926-.247,2,2,0,0,0-1.28.083,3.773,3.773,0,0,0-1.036.727c-.242.232-.457.463-.649.687Q57.922,229.321,58.761,230.112Z" transform="translate(-32.776 -190.447)" fill="url(#linear-gradient-4)"/>
            <path id="Tracé_93" data-name="Tracé 93" d="M69.06,241.1l8.036-11.91,2.13,1.437-.791,1.17.4.267a3.875,3.875,0,0,1,1.438-.475,2.278,2.278,0,0,1,1.456.478,2.521,2.521,0,0,1,1.211,1.777,4.043,4.043,0,0,1-.891,2.6l-6.222,9.219-2.129-1.436,6.341-9.4a1.112,1.112,0,0,0-.255-1.747,2.008,2.008,0,0,0-1.082-.333,1.829,1.829,0,0,0-1.134.341l-6.375,9.448Z" transform="translate(-31.599 -189.601)" fill="url(#linear-gradient-5)"/>
            <path id="Tracé_94" data-name="Tracé 94" d="M82.436,249.627a4.077,4.077,0,0,1-2.232-2.222,4.693,4.693,0,0,1,.57-3.155q.408-.816.979-1.921t1.169-2.206q.6-1.1,1.081-1.928a4.706,4.706,0,0,1,2.289-2.218,4.056,4.056,0,0,1,3.1.614,3.992,3.992,0,0,1,2.226,2.231,4.813,4.813,0,0,1-.57,3.128q-.413.828-.98,1.929c-.378.733-.768,1.467-1.167,2.2s-.76,1.377-1.082,1.929a4.85,4.85,0,0,1-2.283,2.222A3.98,3.98,0,0,1,82.436,249.627Zm.928-1.744a1.19,1.19,0,0,0,1.882-.545q1.053-1.822,1.969-3.541t1.845-3.609a1.182,1.182,0,0,0-.6-1.855,1.5,1.5,0,0,0-1.1-.218,1.455,1.455,0,0,0-.8.739q-1.045,1.83-1.965,3.56t-1.849,3.593a1.469,1.469,0,0,0-.175,1.087A1.5,1.5,0,0,0,83.365,247.883Z" transform="translate(-30.622 -189.011)" fill="url(#linear-gradient-6)"/>
            <path id="Tracé_95" data-name="Tracé 95" d="M91.972,254.253a2.616,2.616,0,0,1-1.582-1.509,3.862,3.862,0,0,1,.316-2.73l4.194-10.3,2.379.97L93,251.182q-.493,1.21.576,1.645a2.014,2.014,0,0,0,1.12.1,1.808,1.808,0,0,0,1.045-.564l4.3-10.556,2.379.968-5.418,13.308-2.379-.97.532-1.308-.352-.144A2.651,2.651,0,0,1,91.972,254.253Z" transform="translate(-29.724 -188.67)" fill="url(#linear-gradient-7)"/>
            <path id="Tracé_96" data-name="Tracé 96" d="M101.93,257.743l2.107-14.358,2.51.739-1.193,7.189-1.142,5.081.525.155,1.814-4.882,2.915-6.681,2.509.741-6.053,13.193Z" transform="translate(-28.691 -188.345)" fill="url(#linear-gradient-8)"/>
            <path id="Tracé_97" data-name="Tracé 97" d="M114.786,261.115a4.292,4.292,0,0,1-2.727-1.374,3.854,3.854,0,0,1-.469-2.9c.07-.451.164-1,.281-1.648s.244-1.326.381-2.037.273-1.391.407-2.048.255-1.219.361-1.685a4,4,0,0,1,1.539-2.545,4.181,4.181,0,0,1,3-.275,4.092,4.092,0,0,1,2.629,1.342,3.825,3.825,0,0,1,.452,2.839q-.049.318-.173,1t-.3,1.54q-.171.864-.372,1.714l-5.092-.982q-.165.859-.316,1.736t-.318,1.8a1.492,1.492,0,0,0,.133,1.1,1.44,1.44,0,0,0,.942.488,1.266,1.266,0,0,0,.991-.115,1.62,1.62,0,0,0,.516-.972q.176-.736.4-2.092l2.463.475c-.027.221-.073.514-.138.875s-.13.682-.192.964a3.215,3.215,0,0,1-4.406,2.807Zm.273-8.885,2.652.509q.178-.865.323-1.644t.175-1.063a1.454,1.454,0,0,0-.143-1.021,1.325,1.325,0,0,0-.879-.469,1.429,1.429,0,0,0-1.054.1,1.39,1.39,0,0,0-.505.9q-.153.725-.293,1.39T115.059,252.23Z" transform="translate(-27.843 -188.073)" fill="url(#linear-gradient-9)"/>
            <path id="Tracé_98" data-name="Tracé 98" d="M121.918,262.454l2.16-19.034,2.554.29-2.162,19.035Z" transform="translate(-26.923 -188.342)" fill="url(#linear-gradient-10)"/>
            <path id="Tracé_99" data-name="Tracé 99" d="M128.512,263.084l1.038-19.129,2.567.139-1.038,19.13Z" transform="translate(-26.34 -188.295)" fill="url(#linear-gradient-11)"/>
            <path id="Tracé_100" data-name="Tracé 100" d="M138.8,263.114a4.3,4.3,0,0,1-2.956-.764,3.86,3.86,0,0,1-1.073-2.736q-.039-.682-.073-1.67t-.059-2.07q-.023-1.086-.035-2.09c-.008-.669-.009-1.246,0-1.724a4.005,4.005,0,0,1,.965-2.813,4.179,4.179,0,0,1,2.877-.9,4.1,4.1,0,0,1,2.854.756,3.825,3.825,0,0,1,1.043,2.678c.011.214.025.552.039,1.011s.026.981.036,1.567.008,1.171,0,1.755l-5.183.116c.013.583.033,1.17.058,1.766s.049,1.2.07,1.824a1.491,1.491,0,0,0,.364,1.046,1.448,1.448,0,0,0,1.024.276,1.264,1.264,0,0,0,.944-.321,1.636,1.636,0,0,0,.3-1.059c.011-.5,0-1.214-.048-2.131l2.508-.057c.021.222.036.518.049.886s.019.692.017.98a3.213,3.213,0,0,1-3.712,3.677Zm-1.614-8.741,2.7-.061q-.01-.887-.033-1.676c-.016-.527-.035-.885-.053-1.077a1.443,1.443,0,0,0-.356-.968,1.3,1.3,0,0,0-.957-.272,1.445,1.445,0,0,0-1.01.316,1.386,1.386,0,0,0-.3.984c0,.494.005.969.008,1.418S137.182,253.934,137.184,254.372Z" transform="translate(-25.802 -187.907)" fill="url(#linear-gradient-12)"/>
            <path id="Tracé_101" data-name="Tracé 101" d="M161.232,265.136l-4.682-18.575,2.492-.628.345,1.368.392-.1a3.922,3.922,0,0,1,.594-1.392,2.263,2.263,0,0,1,1.33-.76,2.5,2.5,0,0,1,2.131.283,4.305,4.305,0,0,1,1.385,2.386q.194.668.455,1.651t.536,2.081q.278,1.1.525,2.128t.411,1.78a4.03,4.03,0,0,1-.155,2.767,2.7,2.7,0,0,1-1.8,1.282,2.116,2.116,0,0,1-1.326-.053,3.606,3.606,0,0,1-1.26-.961l-.392.1,1.515,6.014Zm2.514-7.349a1.2,1.2,0,0,0,.962-1.588q-.413-1.972-.962-4.13t-1.07-3.928a1.588,1.588,0,0,0-.525-.891,1.075,1.075,0,0,0-.912-.091,2,2,0,0,0-.983.575,1.772,1.772,0,0,0-.489,1.08l2.06,8.174a2.041,2.041,0,0,0,.85.772A1.684,1.684,0,0,0,163.747,257.787Z" transform="translate(-23.859 -188.208)" fill="url(#linear-gradient-13)"/>
            <path id="Tracé_102" data-name="Tracé 102" d="M171.775,257.589l-6.459-18.036,2.419-.865,6.458,18.036Z" transform="translate(-23.084 -188.761)" fill="url(#linear-gradient-14)"/>
            <path id="Tracé_103" data-name="Tracé 103" d="M180.541,254.266a2.624,2.624,0,0,1-2.185.073,3.856,3.856,0,0,1-1.731-2.132L172.2,242l2.357-1.022,4.514,10.4q.522,1.2,1.579.739a2.021,2.021,0,0,0,.856-.73,1.814,1.814,0,0,0,.328-1.142l-4.538-10.455,2.357-1.023,5.72,13.179-2.355,1.023-.563-1.3-.348.152A2.656,2.656,0,0,1,180.541,254.266Z" transform="translate(-22.475 -188.754)" fill="url(#linear-gradient-15)"/>
            <path id="Tracé_104" data-name="Tracé 104" d="M188.908,250.068,182,237.473l2.252-1.237.76,1.386.417-.229a1.956,1.956,0,0,1-.069-1.425,1.985,1.985,0,0,1,.917-.911c.145-.081.293-.155.442-.222s.263-.124.346-.171l.969,1.763-.751.413a2.836,2.836,0,0,0-1.3,1.164,1.884,1.884,0,0,0-.02,1.35l5.2,9.478Z" transform="translate(-21.608 -189.117)" fill="url(#linear-gradient-16)"/>
            <path id="Tracé_105" data-name="Tracé 105" d="M187.513,231.813l-1.25-1.944,2.552-1.638,1.248,1.945Zm9.312,14.041-7.763-12.09,2.162-1.388,7.763,12.09Z" transform="translate(-21.231 -189.686)" fill="url(#linear-gradient-17)"/>
            <path id="Tracé_106" data-name="Tracé 106" d="M202.384,242.121,191.1,226.641l2.077-1.512,11.285,15.48Z" transform="translate(-20.803 -189.96)" fill="url(#linear-gradient-18)"/>
            <path id="Tracé_107" data-name="Tracé 107" d="M196.833,225.249l-1.468-1.784,2.341-1.926,1.468,1.785Zm10.9,12.852L198.6,227.006l1.983-1.633,9.129,11.1Z" transform="translate(-20.425 -190.278)" fill="url(#linear-gradient-19)"/>
            <path id="Tracé_108" data-name="Tracé 108" d="M212.764,233.574l-10.02-10.3,1.841-1.792.986,1.012.341-.332a3.923,3.923,0,0,1-.17-1.505,2.277,2.277,0,0,1,.764-1.328,2.521,2.521,0,0,1,1.988-.823,4.04,4.04,0,0,1,2.361,1.4l7.758,7.973-1.842,1.793-7.908-8.127a1.111,1.111,0,0,0-1.762-.108,2.023,2.023,0,0,0-.546.991,1.843,1.843,0,0,0,.1,1.18l7.949,8.169Z" transform="translate(-19.773 -190.547)" fill="url(#linear-gradient-20)"/>
            <path id="Tracé_109" data-name="Tracé 109" d="M226.885,225.106q-2.2,2.655-4.044,1.575c-.077-.045-.173-.1-.284-.182a2.323,2.323,0,0,1-.29-.233,1.712,1.712,0,0,1-.5-1.048,1.748,1.748,0,0,1,.292-1.1l-.313-.26a1.482,1.482,0,0,1-1.863.184c-.1-.077-.186-.14-.249-.2s-.13-.115-.2-.177a1.218,1.218,0,0,1-.335-.9,2.163,2.163,0,0,1,.325-1.058l-.312-.26q-1.562.759-3.555-.723-.614-.478-1.059-.833c-.3-.236-.588-.476-.871-.723s-.612-.531-.983-.86a4.133,4.133,0,0,1-1.5-2.56,4.213,4.213,0,0,1,1.239-2.8,5.427,5.427,0,0,1,1.685-1.46,2.606,2.606,0,0,1,1.672-.206l.257-.31a1.44,1.44,0,0,1,.058-2.131l1.529,1.268-.243.292a1.067,1.067,0,0,0-.278.852,1.656,1.656,0,0,0,.645.937l.767.652c.385.309.729.59,1.031.838s.667.57,1.1.961a4.05,4.05,0,0,1,1.511,2.529,4.231,4.231,0,0,1-1.248,2.818,3.621,3.621,0,0,0-.753,1.206.639.639,0,0,0,.217.7l.083.069a.583.583,0,0,0,.639.121,4.456,4.456,0,0,0,1.112-1.032,6.305,6.305,0,0,1,2.494-1.956,2.614,2.614,0,0,1,2.292.348,3.423,3.423,0,0,1,.691.573,2.557,2.557,0,0,1,.784,2.311A6.65,6.65,0,0,1,226.885,225.106Zm-7.533-6.371a1.2,1.2,0,0,0-.1-1.941q-1.515-1.394-3.418-2.834a1.5,1.5,0,0,0-1-.376,1.484,1.484,0,0,0-.931.625,1.521,1.521,0,0,0-.454,1.045,1.479,1.479,0,0,0,.577.927c.588.528,1.155,1.023,1.7,1.48s1.1.9,1.662,1.308a1.543,1.543,0,0,0,1.029.391A1.491,1.491,0,0,0,219.352,218.735Zm6.23,5.072a3.813,3.813,0,0,0,.759-1.27,1.021,1.021,0,0,0-.2-1,1.272,1.272,0,0,0-.487-.39.934.934,0,0,0-.979,0,4.749,4.749,0,0,0-1.1.994,3.059,3.059,0,0,0-.709,1.165,1.017,1.017,0,0,0,.235.944,1.544,1.544,0,0,0,.47.389,1.01,1.01,0,0,0,.986.069A3.335,3.335,0,0,0,225.582,223.807Z" transform="translate(-19.03 -191.401)" fill="url(#linear-gradient-21)"/>
            <path id="Tracé_110" data-name="Tracé 110" d="M230.573,213.375a2.623,2.623,0,0,1-1.795,1.251,3.86,3.86,0,0,1-2.611-.851l-9.263-6.156,1.422-2.139,9.442,6.276q1.086.723,1.725-.238a2,2,0,0,0,.321-1.079,1.817,1.817,0,0,0-.344-1.136l-9.493-6.31,1.423-2.139,11.964,7.953-1.422,2.14-1.177-.783-.211.317A2.653,2.653,0,0,1,230.573,213.375Z" transform="translate(-18.52 -192.108)" fill="url(#linear-gradient-22)"/>
            <path id="Tracé_111" data-name="Tracé 111" d="M237.267,201.949a4.288,4.288,0,0,1-2.105,2.21,3.856,3.856,0,0,1-2.914-.392q-.616-.3-1.494-.748t-1.837-.955q-.96-.506-1.843-.985c-.59-.319-1.093-.6-1.509-.835a4,4,0,0,1-1.989-2.211,4.19,4.19,0,0,1,.608-2.953,4.087,4.087,0,0,1,2.047-2.127,3.82,3.82,0,0,1,2.847.391c.193.095.5.246.9.457s.87.455,1.387.73,1.029.562,1.531.854l-2.415,4.588c.514.272,1.038.541,1.57.807s1.074.542,1.629.826a1.484,1.484,0,0,0,1.09.189,1.43,1.43,0,0,0,.739-.76,1.267,1.267,0,0,0,.179-.98,1.635,1.635,0,0,0-.783-.776q-.65-.384-1.885-.993l1.171-2.22c.2.089.47.22.8.386s.615.323.865.463a3.215,3.215,0,0,1,1.41,5.032Zm-8.424-2.84,1.258-2.389q-.777-.421-1.48-.787t-.967-.476a1.454,1.454,0,0,0-1.02-.161,1.325,1.325,0,0,0-.7.706,1.427,1.427,0,0,0-.214,1.035,1.389,1.389,0,0,0,.711.746l1.244.681C228.069,198.684,228.458,198.9,228.844,199.109Z" transform="translate(-17.937 -192.819)" fill="url(#linear-gradient-23)"/>
          </g>
        </g>
        <g id="Groupe_46" data-name="Groupe 46" transform="translate(5.748)">
          <g id="Groupe_45" data-name="Groupe 45">
            <path id="Tracé_112" data-name="Tracé 112" d="M62.746,92.878q-1.775,2.384-3.539,2.646a5.86,5.86,0,0,1-4.124-1.435q-1.994-1.425-4.194-3.046T46.5,87.769q-2.189-1.651-4.137-3.164a5.732,5.732,0,0,1-2.375-3.441,5.475,5.475,0,0,1,1.376-4.208,5.807,5.807,0,0,1,3.5-2.586,5.912,5.912,0,0,1,4.153,1.365q.705.5,1.722,1.283t1.7,1.309l-2.109,2.828q-.854-.658-1.951-1.494T46.4,78.205A2.013,2.013,0,0,0,44,81.426q3.241,2.56,6.777,5.2t6.915,5.011a1.761,1.761,0,0,0,2.729-.492,1.809,1.809,0,0,0-.25-2.833q-.87-.689-2.028-1.542T56.1,85.272L58.2,82.445q.883.619,1.807,1.306T61.786,85.1a5.847,5.847,0,0,1,2.494,3.62A5.993,5.993,0,0,1,62.746,92.878Z" transform="translate(-39.925 -25.951)" fill="url(#linear-gradient-24)"/>
            <path id="Tracé_113" data-name="Tracé 113" d="M71.168,83.139A5.97,5.97,0,0,1,67.3,85.265a5.722,5.722,0,0,1-3.9-1.973q-5.755-5.466-11.269-11.2a5.714,5.714,0,0,1-1.986-3.874,5.973,5.973,0,0,1,2.1-3.885A5.874,5.874,0,0,1,56.1,62.226a5.879,5.879,0,0,1,3.891,1.957q5.812,5.478,11.268,11.2a5.912,5.912,0,0,1,1.993,3.89A5.879,5.879,0,0,1,71.168,83.139Zm-2.075-2.059a1.757,1.757,0,0,0,.121-2.76q-1.853-1.979-3.927-4.074t-4.175-4.137q-2.1-2.043-4.046-3.861a2.059,2.059,0,0,0-2.89,2.907Q56,71.1,58.052,73.188t4.168,4.144q2.114,2.054,4.1,3.9A1.764,1.764,0,0,0,69.093,81.079Z" transform="translate(-39.021 -27.022)" fill="url(#linear-gradient-25)"/>
            <path id="Tracé_114" data-name="Tracé 114" d="M76.5,77.841,60.92,56.875l4.324-3.214,6.31,5.644L81.932,69.9l.643-.478-8.141-9.857-6.308-8.047,2.752-2.045L86.461,70.438,81.942,73.8l-6.789-6.124-9.66-10.314-.681.507,8.306,10.161,6.125,7.776Z" transform="translate(-38.068 -28.15)" fill="url(#linear-gradient-26)"/>
            <path id="Tracé_115" data-name="Tracé 115" d="M92.939,66.924q-2.622,1.4-4.329.887a5.85,5.85,0,0,1-3.122-3.053q-1.2-2.137-2.5-4.542t-2.58-4.832q-1.278-2.428-2.4-4.625a5.724,5.724,0,0,1-.685-4.123,5.477,5.477,0,0,1,3.037-3.223,5.8,5.8,0,0,1,4.264-.852,5.913,5.913,0,0,1,3.178,3.005q.423.754,1.011,1.894t.983,1.909L86.692,51.03q-.495-.958-1.13-2.183t-1.172-2.16a2.012,2.012,0,0,0-3.542,1.893q1.845,3.7,3.922,7.586t4.123,7.478a1.76,1.76,0,0,0,2.678.717q1.829-.976.98-2.67-.493-.994-1.178-2.259t-1.213-2.22l3.11-1.662q.537.937,1.079,1.952t1.036,1.973a5.867,5.867,0,0,1,.715,4.338A6.01,6.01,0,0,1,92.939,66.924Z" transform="translate(-36.629 -28.774)" fill="url(#linear-gradient-27)"/>
            <path id="Tracé_116" data-name="Tracé 116" d="M104.667,61.7a5.985,5.985,0,0,1-4.41.268,5.739,5.739,0,0,1-2.681-3.449q-2.867-7.4-5.405-14.938a5.689,5.689,0,0,1-.141-4.35,5.971,5.971,0,0,1,3.558-2.617,5.88,5.88,0,0,1,4.385-.26,5.88,5.88,0,0,1,2.683,3.431q2.918,7.435,5.406,14.938a5.9,5.9,0,0,1,.14,4.368Q107.43,60.7,104.667,61.7Zm-.995-2.748a1.756,1.756,0,0,0,1.287-2.445q-.831-2.583-1.811-5.362t-2.008-5.524q-1.029-2.743-2.011-5.219A2.058,2.058,0,0,0,95.276,41.8q.813,2.537,1.781,5.3t2,5.527q1.033,2.759,2.048,5.275A1.764,1.764,0,0,0,103.672,58.956Z" transform="translate(-35.348 -29.338)" fill="url(#linear-gradient-28)"/>
            <path id="Tracé_117" data-name="Tracé 117" d="M117.162,58.229a5.965,5.965,0,0,1-4.412-.364,5.7,5.7,0,0,1-2.136-3.8q-2.256-10.253-4.253-20.56l3.454-.715q.978,5.133,2.117,10.6t2.244,10.573q.376,1.822,2.391,1.406,1.984-.41,1.605-2.234-1.011-5.125-2.125-10.6T113.8,31.965l3.454-.715q2.256,10.257,4.252,20.562a5.728,5.728,0,0,1-.445,4.335Q120.055,57.63,117.162,58.229Z" transform="translate(-34.048 -29.763)" fill="url(#linear-gradient-29)"/>
            <path id="Tracé_118" data-name="Tracé 118" d="M124.475,56.507,122.8,30.437l5.132-.33a6.073,6.073,0,0,1,4.308.959,5.642,5.642,0,0,1,1.67,3.959q.18,1.771.269,3.157t.124,2.97q.119,3.641-2.111,4.848l3.49,9.788-3.747.241-3.03-9.23-1.515.1.6,9.386Zm2.718-12.723,1.595-.1a1.884,1.884,0,0,0,2.008-2.125q-.062-3.251-.416-6.484a1.869,1.869,0,0,0-2.246-1.836l-1.612.1Z" transform="translate(-32.593 -29.866)" fill="url(#linear-gradient-30)"/>
            <path id="Tracé_119" data-name="Tracé 119" d="M142.426,56.528q-2.931-.214-4.085-1.565a6.146,6.146,0,0,1-1.059-4.259q.049-1.143.136-2.216t.269-2.224l3.322.241q-.162,1.314-.262,2.609t-.106,2.456a2.05,2.05,0,0,0,.467,1.466,2.222,2.222,0,0,0,1.512.577,2.017,2.017,0,0,0,1.516-.357,2.314,2.314,0,0,0,.656-1.385q.162-1.1.22-2.006c.039-.6.063-1.3.077-2.081a4.52,4.52,0,0,0-.271-1.674,1.715,1.715,0,0,0-1.124-1l-2.14-.712a4.624,4.624,0,0,1-2.872-2.149,7.888,7.888,0,0,1-.612-3.768q.047-.88.123-1.792t.155-1.806A5.981,5.981,0,0,1,140,30.855q1.342-1.154,4.34-.937a5.632,5.632,0,0,1,3.988,1.55A6.035,6.035,0,0,1,149.4,35.7q-.046.816-.135,1.972t-.225,2.308l-3.388-.246q.139-1.218.244-2.446t.146-2.453q.054-1.878-1.933-2.022a2.079,2.079,0,0,0-1.549.362,2.187,2.187,0,0,0-.655,1.36q-.157,1.037-.225,2.1t-.078,2.106a4.089,4.089,0,0,0,.284,1.715,1.835,1.835,0,0,0,1.174.945l1.937.615a4.664,4.664,0,0,1,2.992,2.2,8.069,8.069,0,0,1,.63,3.827c-.028.686-.062,1.278-.1,1.777s-.1,1.062-.163,1.69a6.091,6.091,0,0,1-1.678,4.06A5.742,5.742,0,0,1,142.426,56.528Z" transform="translate(-31.313 -29.883)" fill="url(#linear-gradient-31)"/>
            <path id="Tracé_120" data-name="Tracé 120" d="M157.843,58.683l6.809-25.221,3.4.92L161.248,59.6Z" transform="translate(-29.493 -29.567)" fill="url(#linear-gradient-32)"/>
            <path id="Tracé_121" data-name="Tracé 121" d="M164.454,60.359l9.739-24.24,5,2.009-1.517,8.329L174.06,60.841l.743.3,4.155-12.091,3.567-9.581,3.182,1.278-9.74,24.24-5.227-2.1,1.676-8.986,3.75-13.624-.787-.318-4.328,12.391-3.432,9.284Z" transform="translate(-28.908 -29.332)" fill="url(#linear-gradient-33)"/>
            <path id="Tracé_122" data-name="Tracé 122" d="M177.124,65.371l15.96-20.926,5.071,2.969L187.72,71.575l-3.114-1.823,2.756-5.935-3.3-1.931L180.252,67.2Zm8.82-6.016,2.719,1.591,2.426-5.24,3.342-6.841-.789-.462-4.314,6.272Z" transform="translate(-27.787 -28.595)" fill="url(#linear-gradient-34)"/>
            <path id="Tracé_123" data-name="Tracé 123" d="M188.918,72.585,204.9,51.92l2.79,2.158L193.626,72.261l4.61,3.567-1.918,2.481Z" transform="translate(-26.744 -27.934)" fill="url(#linear-gradient-35)"/>
            <path id="Tracé_124" data-name="Tracé 124" d="M200.938,83.063q-2.1-2.1-2.1-3.887a5.857,5.857,0,0,1,2.018-3.871q1.7-1.765,3.622-3.708t3.878-3.87q1.953-1.927,3.731-3.633a5.731,5.731,0,0,1,3.75-1.849,5.475,5.475,0,0,1,3.961,1.972,5.807,5.807,0,0,1,2.053,3.835,5.9,5.9,0,0,1-1.956,3.912q-.6.624-1.517,1.516t-1.543,1.493l-2.492-2.495q.772-.749,1.762-1.713t1.728-1.747a2.013,2.013,0,0,0-2.839-2.843q-3.006,2.836-6.124,5.951t-5.964,6.113A1.761,1.761,0,0,0,203,81.01q1.463,1.468,2.839.164.808-.761,1.821-1.782t1.774-1.8l2.49,2.5q-.74.784-1.553,1.6t-1.59,1.562a5.859,5.859,0,0,1-3.945,1.942A6.01,6.01,0,0,1,200.938,83.063Z" transform="translate(-25.866 -27.021)" fill="url(#linear-gradient-36)"/>
            <path id="Tracé_125" data-name="Tracé 125" d="M209.458,92.785a5.97,5.97,0,0,1-1.54-4.139,5.728,5.728,0,0,1,2.518-3.569q6.243-4.9,12.715-9.525a5.693,5.693,0,0,1,4.118-1.4,5.97,5.97,0,0,1,3.541,2.642q1.763,2.353,1.526,4.121a5.877,5.877,0,0,1-2.5,3.566Q223.572,89.432,217.122,94a5.9,5.9,0,0,1-4.138,1.406Q211.22,95.138,209.458,92.785Zm2.338-1.752a1.758,1.758,0,0,0,2.715.518q2.227-1.546,4.6-3.295t4.7-3.53q2.327-1.783,4.407-3.444A2.059,2.059,0,0,0,225.761,78q-2.189,1.518-4.554,3.249t-4.7,3.523q-2.338,1.793-4.451,3.5A1.765,1.765,0,0,0,211.8,91.033Z" transform="translate(-25.065 -25.971)" fill="url(#linear-gradient-37)"/>
          </g>
        </g>
      </g>
    </g>
  </g>
</svg>
